<svg xmlns="http://www.w3.org/2000/svg" width="40.36" height="33.63" viewBox="0 0 40.36 33.63">
  <path id="Icon-Laptop" d="M683.645,1016.53a3.019,3.019,0,0,1-3.015-3.016,2.366,2.366,0,0,1,2.364-2.364h35.63a2.367,2.367,0,0,1,2.365,2.364,3.019,3.019,0,0,1-3.015,3.016Zm11.784-2.014c0,.371.6.672,1.345.672h8.072c.742,0,1.346-.3,1.346-.672s-.6-.672-1.346-.672h-8.072C696.032,1013.844,695.429,1014.145,695.429,1014.516Zm-8.07-6.055H683.32v-2.69h.231a4.013,4.013,0,0,1-.231-1.35V986.94a4.045,4.045,0,0,1,4.04-4.04h26.9a4.045,4.045,0,0,1,4.04,4.04v17.48a4.016,4.016,0,0,1-.231,1.35h.231v2.689h-4.03V986.94H687.36v21.52h0Zm10.411-2.761a1.336,1.336,0,0,1-1.258-.357l-4.735-4.756a1.35,1.35,0,0,1,0-1.9l1.894-1.9a1.337,1.337,0,0,1,1.894,0l2.483,2.494,8-8.037a1.334,1.334,0,0,1,1.895,0l1.894,1.9a1.35,1.35,0,0,1,0,1.9l-10.418,10.464a1.335,1.335,0,0,1-1.65.194Z" transform="translate(-680.63 -982.9)" fill="#fed136"/>
</svg>
